name processed_emg_signals
nRows=75
nColumns=7
 
endheader
time	RGLTMED	RRF	RADDLONG	RBF	RTA	RGM
0.34010099999999993	0.3776655033157891	0.2841199677838881	0.9547017663141832	0.1781421122463692	0.5129743497614274	0.1925074923278439
0.34110099999999993	0.3768954014677065	0.2850222155193387	0.9582213943035778	0.1776804816006588	0.514398583049904	0.1927702818403054
0.34210099999999993	0.3761593526314357	0.2859493588502543	0.9615749185278604	0.1772246927351937	0.5158114613927037	0.1930409927299214
0.34310099999999993	0.3754576266225804	0.2868995693895744	0.9647639315940162	0.176774764569559	0.5172113547964253	0.1933196760723633
0.34410099999999993	0.3747904227131474	0.287871021160872	0.9677902722705254	0.1763306923038974	0.51859665441668	0.1936063625376878
0.34510099999999994	0.3741578693076697	0.2888618952464191	0.9706560197427646	0.1758924485861672	0.5199657761831407	0.19390106167473
0.34610099999999994	0.3735600238439441	0.2898703843184304	0.9733634869657136	0.175459984756032	0.5213171643382132	0.194203761279781
0.34710099999999994	0.3729968729183694	0.2908946970376259	0.9759152131542675	0.175033232160036	0.5226492948860108	0.1945144268535032
0.34810099999999994	0.3724683326353007	0.2919330623032245	0.9783139554611096	0.1746121035322597	0.523960678950543	0.1948330011495698
0.34910099999999994	0.3719742491792475	0.2929837333382705	0.980562679896854	0.1741964944343882	0.5252498660428632	0.1951594038180344
0.35010099999999994	0.3715143996081076	0.2940449915939973	0.9826645515486808	0.1737862847486146	0.5265154472372091	0.1954935311459984
0.35110099999999994	0.3710884928650079	0.2951151504566247	0.9846229241548068	0.1733813402166114	0.5277560582566837	0.1958352558976532
0.35210099999999994	0.3706961710057054	0.2961925587401651	0.986441329094192	0.1729815140173821	0.528970382469311	0.1961844272552847
0.35310099999999994	0.3703370106381171	0.297275603949642	0.9881234638531816	0.1725866483765975	0.5301571537949008	0.1965408708623072
0.35410099999999994	0.3700105245704163	0.2983627153014364	0.9896731800321646	0.1721965761995965	0.5313151595218888	0.196904388968889
0.35510099999999994	0.3697161636641513	0.2994523664914835	0.9910944709559744	0.171811122719896	0.5324432430317516	0.1972747606803646
0.35610099999999995	0.369453318888612	0.3005430782070792	0.9923914589526164	0.1714301071547223	0.5335403064273202	0.1976517423081974
0.35710099999999995	0.3692213235720733	0.3016334203828851	0.9935683823656378	0.1710533443586973	0.5346053130605205	0.1980350678229827
0.35810099999999995	0.3690194558445689	0.3027220142047871	0.9946295823658956	0.1706806464665309	0.5356372899549223	0.1984244494084916
0.35910099999999995	0.3688469412657695	0.303807533866835	0.9955794896277536	0.1703118245153153	0.536635330118739	0.1988195781153026
0.36010099999999995	0.3687029556303782	0.3048887080872782	0.9964226109334908	0.16994669003707	0.5375985947443096	0.1992201246119482
0.36110099999999995	0.3685866279423189	0.3059643213904127	0.9971635157678358	0.1695850566125955	0.5385263152902842	0.1996257400309493
0.36210099999999995	0.3684970435477388	0.3070332151614846	0.9978068229620296	0.1692267413783202	0.5394177954425735	0.2000360569064176
0.36310099999999995	0.3684332474155632	0.3080942884822936	0.9983571874437832	0.1688715664783217	0.5402724129495695	0.2004506901993119
0.36410099999999995	0.3683942475530343	0.309146498755105	0.9988192871461394	0.168519360453767	0.5410896213264315	0.2008692384057585
0.36510099999999995	0.3683790185423816	0.3101888621224041	0.9991978101249582	0.1681699595619974	0.5418689514223088	0.2012912847432734
0.36610099999999995	0.3683865051834285	0.3112204536897368	0.999497441931219	0.1678232090172133	0.5426100128434512	0.2017163984092224
0.36710099999999996	0.3684156262256315	0.3122404075587069	0.9997228532808872	0.1674789641447356	0.5433124952241178	0.2021441359054241
0.36810099999999996	0.3684652781716567	0.3132479166769399	0.9998786880614338	0.1671370914408763	0.5439761693360935	0.2025740424225242
0.36910099999999996	0.368534339133315	0.3142422325113989	0.999969551710656	0.1667974695313455	0.5446008880261812	0.2030056532773309
0.37010099999999996	0.368621672719482	0.315222664551022	1.0	0.1664599900226353	0.5451865869695455	0.2034384953958837
0.37110099999999996	0.3687261319346987	0.3161885796440199	0.999974528251208	0.1661245582428669	0.5457332852250805	0.203872088834428
0.37210099999999996	0.3688465630666722	0.3171394011744259	0.9998975610118328	0.1657910938704697	0.5462410855774841	0.2043059483300036
0.37310099999999996	0.3689818095410824	0.3180746080816879	0.9997734422118082	0.1654595314501272	0.5467101746492986	0.2047395848721353
0.37410099999999996	0.3691307157225735	0.3189937337263513	0.9996064258201266	0.1651298207962005	0.5471408227647601	0.2051725072870815
0.37510099999999996	0.369292130641456	0.3198963646043038	0.9994006670174806	0.1648019272841383	0.5475333835458721	0.2056042238265215
0.37610099999999996	0.3694649116262148	0.3207821389121722	0.9991602138975556	0.1644758320306043	0.5478882932195545	0.2060342437532406
0.37710099999999996	0.3696479278230227	0.3216507449673675	0.9988889997067166	0.1641515319629817	0.5482060696133756	0.2064620789172329
0.37810099999999996	0.3698400635854817	0.3225019194882941	0.9985908356288548	0.1638290397790287	0.5484873108167853	0.2068872453165365
0.37910099999999997	0.3700402217203663	0.3233354457433429	0.9982694041195724	0.1635083837978759	0.548732693485834	0.2073092646377438
0.38010099999999997	0.3702473265777728	0.324151151580715	0.9979282527919195	0.1631896077047279	0.5489429707727049	0.2077276657714362
0.38110099999999997	0.3704603269764745	0.3249489073539634	0.9975707888552334	0.1628727701931772	0.5491189698670697	0.2081419862977502
0.38210099999999997	0.3706781989574898	0.325728623759519	0.9972002741089514	0.1625579445105112	0.5492615891439724	0.2085517739370889
0.38310099999999997	0.3708999483607921	0.3264902496027287	0.996819820494119	0.1622452179121736	0.549371794922378	0.2089565879606609
0.38410099999999997	0.3711246132215292	0.3272337695084796	0.9964323862055492	0.1619346910318962	0.5494506178485609	0.20935600055542
0.3851009999999999	0.3713512659832387	0.3279592015918991	0.9960407723668704	0.1616264771738871	0.5494991489275886	0.2097495981378556
0.3861009999999999	0.3715790155265214	0.3286665951038152	0.9956476202689188	0.1613207015334038	0.5495185352330748	0.2101369826111384
0.3871009999999999	0.3718070090123211	0.329356028064925	0.99525540916997	0.1610175003516171	0.5495099753297081	0.2105177725602766
0.3881009999999999	0.3720344335389682	0.3300276049019707	0.9948664546546988	0.1607170200104288	0.549474714445698	0.2108916043801376
0.3891009999999999	0.3722605176115964	0.3306814540987622	0.9944829075475592	0.1604194160726051	0.549414039433568	0.2112581333313028
0.3901009999999999	0.3724845324217179	0.3313177258746688	0.994106753375105	0.1601248522727548	0.5493292735578464	0.2116170345188904
0.3911009999999999	0.3727057929341022	0.3319365899030316	0.993739812370419	0.1598334994649391	0.5492217711475227	0.2119680037894169
0.3921009999999999	0.3729236587778327	0.3325382330815672	0.993383740011072	0.1595455345330888	0.5490929121500037	0.2123107585410308
0.3931009999999999	0.3731375349388067	0.3331228573661717	0.9930400280798742	0.1592611392706703	0.548944096622	0.2126450384429745
0.3941009999999999	0.3733468722524228	0.333690677678654	0.9927100062353909	0.1589804992363372	0.5487767391915764	0.2129706060608678
0.3951009999999999	0.3735511676975255	0.334241919897934	0.9923948440774714	0.1587038025925866	0.5485922635245065	0.2132872473852564
0.3961009999999999	0.3737499644953242	0.3347768189433718	0.9920955536927296	0.1584312389347938	0.5483920968269418	0.2135947722614659
0.3971009999999999	0.3739428520189335	0.3352956169581588	0.9918129926661068	0.1581629981179924	0.5481776644152905	0.2138930147192425
0.3981009999999999	0.374129465520211	0.3357985616002502	0.9915478675465978	0.157899269088738	0.5479503843829406	0.2141818332012452
0.39910099999999993	0.3743094856809896	0.3362859044478655	0.9913007377570464	0.1576402387291101	0.547711662391869	0.214461110690223
0.40010099999999993	0.3744826379959728	0.3367578995260206	0.9910720199388346	0.1573860907198242	0.5474628866155099	0.2147307547356882
0.40110099999999993	0.3746486919946529	0.3372148019597133	0.9908619927222052	0.1571370044290945	0.5472054228574462	0.2149906973816891
0.40210099999999993	0.3748074603099331	0.3376568667585406	0.990670801911865	0.1568931538336707	0.5469406098686135	0.2152408949976128
0.40310099999999993	0.3749587976013611	0.338084347736601	0.9904984660759084	0.1566547064781413	0.5466697548839342	0.2154813280141683
0.40410099999999993	0.3751025993411352	0.3384974965708194	0.9903448825242191	0.1564218224782054	0.5463941293974773	0.2157120005669011
0.40510099999999993	0.3752388004709717	0.3388965619999014	0.9902098336601608	0.1561946535732556	0.5461149651936111	0.2159329400499317
0.40610099999999993	0.3753673739376652	0.3392817891652409	0.9900929936868312	0.1559733422331227	0.5458334506500063	0.216144196583158
0.40710099999999994	0.3754883291146009	0.3396534190938765	0.9899939356463912	0.155758020823352	0.5455507273268986	0.2163458423964574
0.40810099999999994	0.3756017101158941	0.3400116883226368	0.9899121387682904	0.155548810832845	0.5452678868555081	0.2165379711346435
0.40910099999999994	0.3757075940094601	0.3403568286615748	0.9898469960994272	0.1553458221672118	0.544985968136914	0.2167206970869782
0.41010099999999994	0.3758060889352155	0.3406890670940199	0.9897978223864976	0.1551491525106738	0.5447059548610156	0.216894154345135
0.41110099999999994	0.3758973321347704	0.3410086258096634	0.9897638621780362	0.1549588867589941	0.5444287733532697	0.2170584958937849
0.41210099999999994	0.3759814878991918	0.3413157223661239	0.9897442981109116	0.1547750965254995	0.5441552907549939	0.2172138926383131
0.41310099999999994	0.3760587454421576	0.3416105699732802	0.9897382593431476	0.1545978397219008	0.5438863135409914	0.2173605323745445
0.41410099999999994	0.3761293167071414	0.3418933778935457	0.989744830091703	0.1544271602151597	0.543622586376221	0.2174986187054455
